<?xml version="1.0" encoding="UTF-8"?> <svg xmlns="http://www.w3.org/2000/svg" xmlns:xlink="http://www.w3.org/1999/xlink" viewBox="0 0 540 540"><defs><style>.cls-1,.cls-18{fill:none;}.cls-2{fill:#988bb3;}.cls-3{clip-path:url(#clip-path);}.cls-10,.cls-4{fill:#fff;}.cls-5{fill:#72829a;}.cls-6{fill:#cfd1d2;}.cls-7{fill:#abc3d6;}.cls-8{fill:#eaf0f5;}.cls-9{fill:#d1d2d3;}.cls-10{stroke:#d1d2d3;stroke-linecap:round;stroke-width:2px;}.cls-10,.cls-18{stroke-miterlimit:10;}.cls-11{fill:#d0d6dd;}.cls-12{fill:#ebf0f5;}.cls-13{fill:#183059;}.cls-14{fill:#5989ae;}.cls-15{fill:#fccc75;}.cls-16{fill:#d6e1eb;}.cls-17{fill:#fcbb47;}.cls-18{stroke:#000;}.cls-19{fill:#43597a;}.cls-20{fill:#c85960;}.cls-21{fill:#d68388;}.cls-22{fill:#306b9b;}.cls-23{fill:#acc4d7;}</style><clipPath id="clip-path"><rect class="cls-1" x="-10.21" y="311.49" width="532.91" height="228.73"></rect></clipPath></defs><g id="BG"><rect class="cls-2" width="540" height="540"></rect></g><g id="Illos"><g class="cls-3"><rect class="cls-4" x="116.58" y="452.29" width="66.1" height="129.7"></rect><polygon class="cls-5" points="102.36 582.41 134.93 591.93 134.93 452.29 102.36 452.29 102.36 582.41"></polygon><rect class="cls-4" x="122.47" y="442.62" width="49.27" height="9.9"></rect><rect class="cls-5" x="122.47" y="442.62" width="24" height="10.04"></rect><rect class="cls-6" x="162.72" y="463.9" width="13.42" height="5.45"></rect><rect class="cls-6" x="141.75" y="474.8" width="13.42" height="5.45"></rect><rect class="cls-6" x="162.72" y="489.91" width="13.42" height="5.45"></rect><rect class="cls-6" x="139.65" y="500.4" width="13.42" height="5.45"></rect><rect class="cls-6" x="152.48" y="515.5" width="24.09" height="5.24"></rect><rect class="cls-6" x="162.72" y="531.01" width="13.42" height="5.45"></rect><polygon class="cls-7" points="171.29 318.75 238.97 318.75 238.97 363.55 232.73 363.55 221.4 377.95 210.06 363.55 171.29 363.55 171.29 318.75"></polygon><polygon class="cls-7" points="243.31 363.62 177.94 363.62 116.17 363.62 116.17 341.18 116.17 318.75 177.94 318.75 243.31 318.75 243.31 363.62"></polygon><path class="cls-8" d="M160.92,331.34a5.55,5.55,0,0,0-4.18,1.88,5.6,5.6,0,0,0-8.59,7.19l8.59,10.88,8.58-10.88a5.54,5.54,0,0,0,1.21-3.47A5.61,5.61,0,0,0,160.92,331.34Z"></path><path class="cls-8" d="M183.93,331.34a5.57,5.57,0,0,0-4.19,1.88,5.6,5.6,0,0,0-8.59,7.19l8.59,10.88,8.59-10.88a5.6,5.6,0,0,0-4.4-9.07Z"></path><path class="cls-8" d="M206.93,331.34a5.57,5.57,0,0,0-4.19,1.88,5.55,5.55,0,0,0-4.18-1.88,5.6,5.6,0,0,0-4.41,9.07l8.59,10.88,8.59-10.88a5.6,5.6,0,0,0-4.4-9.07Z"></path><polygon class="cls-7" points="478.69 353.22 428.74 353.22 378.79 353.22 378.79 371.96 378.79 390.71 428.74 390.71 478.69 390.71 478.69 353.22"></polygon><polygon class="cls-7" points="415.53 353.1 472.35 353.1 472.35 390.71 467.11 390.71 457.6 402.8 448.09 390.71 415.53 390.71 415.53 353.1"></polygon><circle class="cls-8" cx="414.82" cy="372.5" r="3.87"></circle><circle class="cls-8" cx="428.74" cy="372.5" r="3.87"></circle><circle class="cls-8" cx="442.65" cy="372.5" r="3.87"></circle><rect class="cls-4" x="36.15" y="422.28" width="75.99" height="133.88"></rect><rect class="cls-5" x="27" y="422.28" width="35.53" height="133.95"></rect><rect class="cls-4" x="57.03" y="414.45" width="41.61" height="8.43"></rect><rect class="cls-5" x="46.37" y="414.45" width="23.52" height="8.43"></rect><rect class="cls-6" x="66.28" y="425.85" width="6.19" height="18.88"></rect><rect class="cls-9" x="66.28" y="449.8" width="6.19" height="5.42"></rect><rect class="cls-9" x="66.28" y="460.29" width="6.19" height="5.42"></rect><rect class="cls-9" x="66.28" y="470.78" width="6.19" height="5.42"></rect><rect class="cls-9" x="66.28" y="481.27" width="6.19" height="5.42"></rect><rect class="cls-9" x="66.28" y="491.77" width="6.19" height="5.42"></rect><rect class="cls-9" x="66.28" y="502.26" width="6.19" height="5.42"></rect><rect class="cls-9" x="66.28" y="512.75" width="6.19" height="5.42"></rect><rect class="cls-9" x="66.28" y="523.24" width="6.19" height="5.42"></rect><rect class="cls-6" x="78.61" y="425.85" width="6.19" height="18.88"></rect><rect class="cls-9" x="78.61" y="449.8" width="6.19" height="5.42"></rect><rect class="cls-9" x="78.61" y="460.29" width="6.19" height="5.42"></rect><rect class="cls-9" x="78.61" y="470.78" width="6.19" height="5.42"></rect><rect class="cls-9" x="78.61" y="481.27" width="6.19" height="5.42"></rect><rect class="cls-9" x="78.61" y="491.77" width="6.19" height="5.42"></rect><rect class="cls-9" x="78.61" y="502.26" width="6.19" height="5.42"></rect><rect class="cls-9" x="78.61" y="512.75" width="6.19" height="5.42"></rect><rect class="cls-9" x="78.61" y="523.24" width="6.19" height="5.42"></rect><rect class="cls-6" x="91.04" y="425.85" width="6.19" height="18.88"></rect><rect class="cls-9" x="91.04" y="449.8" width="6.19" height="5.42"></rect><rect class="cls-9" x="91.04" y="460.29" width="6.19" height="5.42"></rect><rect class="cls-9" x="91.04" y="470.78" width="6.19" height="5.42"></rect><rect class="cls-9" x="91.04" y="481.27" width="6.19" height="5.42"></rect><rect class="cls-9" x="91.04" y="491.77" width="6.19" height="5.42"></rect><rect class="cls-9" x="91.04" y="502.26" width="6.19" height="5.42"></rect><rect class="cls-9" x="91.04" y="512.75" width="6.19" height="5.42"></rect><rect class="cls-9" x="91.04" y="523.24" width="6.19" height="5.42"></rect><rect class="cls-6" x="103.22" y="425.85" width="6.19" height="18.88"></rect><rect class="cls-9" x="103.22" y="449.8" width="6.19" height="5.42"></rect><rect class="cls-9" x="103.22" y="460.29" width="6.19" height="5.42"></rect><rect class="cls-9" x="103.22" y="470.78" width="6.19" height="5.42"></rect><rect class="cls-9" x="103.22" y="481.27" width="6.19" height="5.42"></rect><rect class="cls-9" x="103.22" y="491.77" width="6.19" height="5.42"></rect><rect class="cls-9" x="103.22" y="502.26" width="6.19" height="5.42"></rect><rect class="cls-9" x="103.22" y="512.75" width="6.19" height="5.42"></rect><rect class="cls-9" x="103.22" y="523.24" width="6.19" height="5.42"></rect><rect class="cls-9" x="66.28" y="533.76" width="6.19" height="5.42"></rect><rect class="cls-9" x="78.61" y="533.76" width="6.19" height="5.42"></rect><rect class="cls-9" x="91.04" y="533.76" width="6.19" height="5.42"></rect><rect class="cls-9" x="103.22" y="533.76" width="6.19" height="5.42"></rect><rect class="cls-9" x="378.99" y="484.78" width="50.2" height="80.73"></rect><polygon class="cls-5" points="371.48 564.56 393.35 564.56 393.35 484.78 372.06 484.78 371.48 564.56"></polygon><rect class="cls-5" x="396.4" y="488.39" width="29.36" height="3.84"></rect><rect class="cls-5" x="396.4" y="500.26" width="29.36" height="3.84"></rect><rect class="cls-5" x="396.34" y="512.56" width="29.36" height="5.5"></rect><rect class="cls-5" x="396.34" y="528.1" width="29.36" height="5.5"></rect><polygon class="cls-5" points="347.19 662.14 315.13 662.14 315.13 404.36 347.19 433.38 347.19 662.14"></polygon><polygon class="cls-4" points="378.23 432.7 345.84 432.7 315.13 404.36 348.2 404.36 378.23 432.7"></polygon><polygon class="cls-9" points="345.81 662.14 378.2 662.23 378.2 432.71 345.81 432.62 345.81 662.14"></polygon><path class="cls-9" d="M340.43,421.77h16.83a0,0,0,0,0,0,0V385.38a0,0,0,0,0,0-.05H340.43Z"></path><polygon class="cls-5" points="340.44 385.29 340.44 421.73 320.86 404.36 340.44 385.29"></polygon><path class="cls-5" d="M371.52,462.4h3.88a.05.05,0,0,0,.05,0V435.68a0,0,0,0,0-.05-.05h-3.88a0,0,0,0,0,0,.05v26.67A0,0,0,0,0,371.52,462.4Z"></path><path class="cls-5" d="M364.57,462.4h3.88s0,0,0,0V435.68a0,0,0,0,0,0-.05h-3.88a0,0,0,0,0-.05.05v26.67A0,0,0,0,0,364.57,462.4Z"></path><path class="cls-5" d="M356.87,462.4h3.87a.05.05,0,0,0,.05,0V435.68a0,0,0,0,0-.05-.05h-3.87a0,0,0,0,0-.05.05v26.67A0,0,0,0,0,356.87,462.4Z"></path><path class="cls-5" d="M349.91,462.4h3.88a.06.06,0,0,0,0,0V435.68a.05.05,0,0,0,0-.05h-3.88a0,0,0,0,0-.05.05v26.67A0,0,0,0,0,349.91,462.4Z"></path><path class="cls-10" d="M370.06,492.29h5.22a.12.12,0,0,0,.12-.12v-22.4a.12.12,0,0,0-.12-.13h-5.22a.13.13,0,0,0-.13.13v22.4A.12.12,0,0,0,370.06,492.29Z"></path><path class="cls-10" d="M356,492.29h5.22a.12.12,0,0,0,.13-.12v-22.4a.13.13,0,0,0-.13-.13H356a.12.12,0,0,0-.12.13v22.4A.12.12,0,0,0,356,492.29Z"></path><path class="cls-10" d="M363,501.32h5.23a.12.12,0,0,0,.12-.12V478.79a.12.12,0,0,0-.12-.12H363a.12.12,0,0,0-.12.12V501.2A.12.12,0,0,0,363,501.32Z"></path><path class="cls-10" d="M363,477.29h5.23a.12.12,0,0,0,.12-.12v-7.4a.13.13,0,0,0-.12-.13H363a.12.12,0,0,0-.12.13v7.4A.12.12,0,0,0,363,477.29Z"></path><path class="cls-10" d="M349,477.29h5.22a.12.12,0,0,0,.12-.12v-7.4a.12.12,0,0,0-.12-.13H349a.13.13,0,0,0-.13.13v7.4A.12.12,0,0,0,349,477.29Z"></path><path class="cls-10" d="M349,501.21h5.22a.13.13,0,0,0,.13-.13v-22.4a.13.13,0,0,0-.13-.13H349a.12.12,0,0,0-.12.13v22.4A.12.12,0,0,0,349,501.21Z"></path><path class="cls-10" d="M369.94,525.15h5.23a.13.13,0,0,0,.12-.13v-22.4a.13.13,0,0,0-.12-.13h-5.23a.12.12,0,0,0-.12.13V525A.12.12,0,0,0,369.94,525.15Z"></path><path class="cls-10" d="M355.9,525.15h5.22a.12.12,0,0,0,.12-.13v-22.4a.12.12,0,0,0-.12-.13H355.9a.13.13,0,0,0-.13.13V525A.13.13,0,0,0,355.9,525.15Z"></path><path class="cls-10" d="M362.92,534.17h5.22a.12.12,0,0,0,.13-.12V511.64a.12.12,0,0,0-.13-.12h-5.22a.12.12,0,0,0-.12.12v22.41A.11.11,0,0,0,362.92,534.17Z"></path><path class="cls-10" d="M362.92,510.15h5.22a.13.13,0,0,0,.13-.13v-7.4a.13.13,0,0,0-.13-.13h-5.22a.12.12,0,0,0-.12.13V510A.12.12,0,0,0,362.92,510.15Z"></path><path class="cls-10" d="M348.92,510.15h5.23a.13.13,0,0,0,.12-.13v-7.4a.13.13,0,0,0-.12-.13h-5.23a.12.12,0,0,0-.12.13V510A.12.12,0,0,0,348.92,510.15Z"></path><path class="cls-10" d="M348.87,534.06h5.23a.12.12,0,0,0,.12-.13v-22.4a.12.12,0,0,0-.12-.12h-5.23a.12.12,0,0,0-.12.12v22.4A.13.13,0,0,0,348.87,534.06Z"></path><path class="cls-10" d="M369.94,558.05h5.23a.12.12,0,0,0,.12-.12v-22.4a.13.13,0,0,0-.12-.13h-5.23a.12.12,0,0,0-.12.13v22.4A.12.12,0,0,0,369.94,558.05Z"></path><path class="cls-10" d="M355.9,558.05h5.22a.12.12,0,0,0,.12-.12v-22.4a.12.12,0,0,0-.12-.13H355.9a.13.13,0,0,0-.13.13v22.4A.12.12,0,0,0,355.9,558.05Z"></path><path class="cls-10" d="M362.92,543.05h5.22a.12.12,0,0,0,.13-.12v-7.4a.13.13,0,0,0-.13-.13h-5.22a.12.12,0,0,0-.12.13v7.4A.11.11,0,0,0,362.92,543.05Z"></path><path class="cls-10" d="M348.92,543.05h5.23a.12.12,0,0,0,.12-.12v-7.4a.13.13,0,0,0-.12-.13h-5.23a.12.12,0,0,0-.12.13v7.4A.12.12,0,0,0,348.92,543.05Z"></path><path class="cls-10" d="M355.78,534.12H361a.12.12,0,0,0,.12-.12v-7.41a.12.12,0,0,0-.12-.12h-5.22a.13.13,0,0,0-.13.12V534A.12.12,0,0,0,355.78,534.12Z"></path><path class="cls-10" d="M369.72,534h5.22a.13.13,0,0,0,.13-.13v-7.4a.12.12,0,0,0-.13-.12h-5.22a.12.12,0,0,0-.13.12v7.4A.13.13,0,0,0,369.72,534Z"></path><path class="cls-10" d="M370,501.1h5.22a.12.12,0,0,0,.12-.13v-7.4a.12.12,0,0,0-.12-.12H370a.12.12,0,0,0-.13.12V501A.13.13,0,0,0,370,501.1Z"></path><path class="cls-10" d="M355.89,501.21h5.23a.12.12,0,0,0,.12-.12v-7.41a.13.13,0,0,0-.12-.12h-5.23a.12.12,0,0,0-.12.12v7.41A.12.12,0,0,0,355.89,501.21Z"></path><rect class="cls-11" x="224.09" y="465.99" width="74.03" height="81.89" transform="translate(522.21 1013.87) rotate(-180)"></rect><rect class="cls-11" x="226.82" y="434.65" width="61.24" height="31.56" transform="translate(514.88 900.86) rotate(-180)"></rect><rect class="cls-5" x="278.86" y="443.23" width="4.76" height="22.52" transform="translate(562.49 908.98) rotate(-180)"></rect><rect class="cls-5" x="270.53" y="443.23" width="4.76" height="22.52" transform="translate(545.82 908.98) rotate(-180)"></rect><rect class="cls-5" x="261.3" y="443.23" width="4.76" height="22.52" transform="translate(527.36 908.98) rotate(-180)"></rect><rect class="cls-5" x="252.96" y="443.23" width="4.76" height="22.52" transform="translate(510.69 908.98) rotate(-180)"></rect><rect class="cls-5" x="287.38" y="470.54" width="6.6" height="10.95" transform="translate(581.36 952.04) rotate(-180)"></rect><rect class="cls-5" x="275.83" y="470.54" width="6.6" height="10.95" transform="translate(558.26 952.04) rotate(-180)"></rect><rect class="cls-5" x="263.04" y="470.54" width="6.6" height="10.95" transform="translate(532.68 952.04) rotate(-180)"></rect><rect class="cls-5" x="251.49" y="470.54" width="6.6" height="10.95" transform="translate(509.57 952.04) rotate(-180)"></rect><rect class="cls-5" x="287.38" y="486.3" width="6.6" height="10.95" transform="translate(581.36 983.56) rotate(-180)"></rect><rect class="cls-5" x="275.83" y="486.3" width="6.6" height="10.95" transform="translate(558.26 983.56) rotate(-180)"></rect><rect class="cls-5" x="263.04" y="486.3" width="6.6" height="10.95" transform="translate(532.68 983.56) rotate(-180)"></rect><rect class="cls-5" x="251.49" y="486.3" width="6.6" height="10.95" transform="translate(509.57 983.56) rotate(-180)"></rect><rect class="cls-5" x="287.38" y="502.06" width="6.6" height="10.95" transform="translate(581.36 1015.07) rotate(-180)"></rect><rect class="cls-5" x="275.83" y="502.06" width="6.6" height="10.95" transform="translate(558.26 1015.07) rotate(-180)"></rect><rect class="cls-5" x="263.04" y="502.06" width="6.6" height="10.95" transform="translate(532.68 1015.07) rotate(-180)"></rect><rect class="cls-5" x="251.49" y="502.06" width="6.6" height="10.95" transform="translate(509.57 1015.07) rotate(-180)"></rect><rect class="cls-5" x="287.38" y="517.82" width="6.6" height="10.95" transform="translate(581.36 1046.59) rotate(-180)"></rect><rect class="cls-5" x="275.83" y="517.82" width="6.6" height="10.95" transform="translate(558.26 1046.59) rotate(-180)"></rect><rect class="cls-5" x="263.04" y="517.82" width="6.6" height="10.95" transform="translate(532.68 1046.59) rotate(-180)"></rect><rect class="cls-5" x="251.49" y="517.82" width="6.6" height="10.95" transform="translate(509.57 1046.59) rotate(-180)"></rect><polygon class="cls-5" points="206.39 547.93 245.6 547.93 245.6 468.52 207.22 468.52 206.39 547.93"></polygon><rect class="cls-5" x="220.66" y="434.65" width="21.59" height="34.11" transform="translate(462.91 903.41) rotate(-180)"></rect><rect class="cls-4" x="441.33" y="448.84" width="69.08" height="97.38" transform="translate(951.74 995.05) rotate(-180)"></rect><rect class="cls-5" x="441.33" y="448.84" width="19.86" height="97.38" transform="translate(902.52 995.05) rotate(-180)"></rect><rect class="cls-4" x="447.7" y="438.37" width="53.32" height="10.71" transform="translate(948.73 887.45) rotate(-180)"></rect><rect class="cls-5" x="447.7" y="438.37" width="25.98" height="10.87" transform="translate(921.38 887.6) rotate(-180)"></rect><rect class="cls-6" x="491.27" y="464.79" width="14.53" height="5.9" transform="translate(997.08 935.49) rotate(-180)"></rect><rect class="cls-6" x="468.57" y="476.6" width="14.53" height="5.9" transform="translate(951.68 959.1) rotate(-180)"></rect><rect class="cls-6" x="491.27" y="494.76" width="14.53" height="5.9" transform="translate(997.08 995.42) rotate(-180)"></rect><rect class="cls-6" x="466.3" y="506.11" width="14.53" height="5.9" transform="translate(947.13 1018.12) rotate(-180)"></rect><rect class="cls-6" x="480.18" y="522.45" width="26.08" height="5.68" transform="translate(986.44 1050.59) rotate(-180)"></rect></g><rect class="cls-12" x="346.74" y="158.82" width="2.12" height="126.86"></rect><rect class="cls-12" x="304.58" y="182.01" width="2.12" height="133.82"></rect><rect class="cls-12" x="262.41" y="159.66" width="2.12" height="124.44"></rect><path class="cls-13" d="M286.54,211.61a18.77,18.77,0,0,0,2.71,5.12,14,14,0,0,1,1.39,2,6.24,6.24,0,0,1,.6,2,8.24,8.24,0,0,1-4.33,8.15l-8.31-8.07"></path><path class="cls-14" d="M315.49,226.72,308.1,245.4a3.94,3.94,0,0,0,2.06,5L323,256.19"></path><path class="cls-4" d="M320.46,239.24l-3.4,5.07a.92.92,0,0,0,.61,1.42l1,.17"></path><path class="cls-15" d="M279.09,131.09l18-27.45a40.23,40.23,0,1,0-67.3,0l18,27.45Z"></path><rect class="cls-12" x="247.85" y="131.09" width="31.24" height="28.17"></rect><path class="cls-16" d="M254.64,159.26a9.86,9.86,0,0,0,17.65,0Z"></path><rect class="cls-16" x="247.85" y="136.67" width="31.24" height="2.75"></rect><rect class="cls-16" x="247.85" y="144.01" width="31.24" height="2.75"></rect><rect class="cls-16" x="247.85" y="151.34" width="31.24" height="2.75"></rect><path class="cls-15" d="M332.18,131.09l-18-27.45a40.24,40.24,0,1,1,67.3,0l-18,27.45Z"></path><rect class="cls-12" x="332.18" y="131.09" width="31.24" height="28.17"></rect><path class="cls-16" d="M356.63,159.26a9.86,9.86,0,0,1-17.65,0Z"></path><rect class="cls-16" x="332.18" y="136.67" width="31.24" height="2.75" transform="translate(695.6 276.1) rotate(-180)"></rect><rect class="cls-16" x="332.18" y="144.01" width="31.24" height="2.75" transform="translate(695.6 290.77) rotate(-180)"></rect><rect class="cls-16" x="332.18" y="151.34" width="31.24" height="2.75" transform="translate(695.6 305.43) rotate(-180)"></rect><path class="cls-17" d="M290,170l-18-27.45a40.24,40.24,0,1,1,67.31,0l-18,27.45Z"></path><rect class="cls-12" x="290.02" y="170.02" width="31.24" height="28.17"></rect><path class="cls-16" d="M314.46,198.19a9.86,9.86,0,0,1-17.65,0Z"></path><rect class="cls-16" x="290.02" y="175.6" width="31.24" height="2.75" transform="translate(611.27 353.96) rotate(-180)"></rect><rect class="cls-16" x="290.02" y="182.94" width="31.24" height="2.75" transform="translate(611.27 368.63) rotate(-180)"></rect><rect class="cls-16" x="290.02" y="190.27" width="31.24" height="2.75" transform="translate(611.27 383.29) rotate(-180)"></rect><ellipse class="cls-18" cx="282.57" cy="214.26" rx="0.59" ry="1.61"></ellipse><path class="cls-19" d="M268.3,255.84l1.46-4.31h17.51l10.17,18.73s-5.83-3.37-6.2-2.12l-4.51-.81-18.34-1.95a14.55,14.55,0,0,1-.09-9.54Z"></path><path class="cls-14" d="M290,212.85l-.54.18a.28.28,0,0,0-.14.42l.28.4a.18.18,0,0,1-.12.28l-.55.06.39.38a.14.14,0,0,1-.08.25l-.16,0a.32.32,0,0,0-.27.25.28.28,0,0,0,0,.13l0,.39a1.44,1.44,0,0,1-1.71,1.55,3,3,0,0,1-.82-.29s-2.1-1-2.94.34a1.7,1.7,0,0,0,.29,2.1l2.16,2.11a14,14,0,0,1-2.61.25,13.83,13.83,0,0,1-4.64-.8,21.13,21.13,0,0,0,.9-3.31c.5-2.51,1.5-6,4.53-6.63,5.83-1.16,5.23-6,5.23-6a7.24,7.24,0,0,1,.54,4.33,3.67,3.67,0,0,0,.36,3.11A.3.3,0,0,1,290,212.85Z"></path><path class="cls-20" d="M289.54,226.61a4,4,0,0,0-3.88,4v16.79a3,3,0,0,0,.23,1.16l1.38,3H269.76l1.9-5.63a8,8,0,0,0,.07-5l-3.53-15.4a5.51,5.51,0,0,0,5.45.44,8.17,8.17,0,0,0,5-5.11,13.83,13.83,0,0,0,4.64.8,14,14,0,0,0,2.61-.25l6.45,6.29,0,0A3.9,3.9,0,0,0,289.54,226.61Z"></path><path class="cls-20" d="M332.24,199.49a7.92,7.92,0,0,0-7.63,8.11c0,1.58,1.3,3.65,2.16,4.88a3.53,3.53,0,0,1,.5,1.1l12.81-8.45A7.89,7.89,0,0,0,332.24,199.49Z"></path><path class="cls-14" d="M340.08,205.13h6.41l-3.05,2.46a6.09,6.09,0,0,1-3.81,1.35l-5.39,0Z"></path><path class="cls-13" d="M327.27,213.58a.14.14,0,0,0,0-.07,3.3,3.3,0,0,1,.05,1.68l3.53-2,.43-2.21Z"></path><path class="cls-13" d="M332.83,209.91h0a1,1,0,0,1,1,1v2.7h1.6v-3.67l1.08-.95-2.25,0Z"></path><path class="cls-21" d="M335.26,221.53a1.51,1.51,0,0,1-.56-.73,1.46,1.46,0,0,1-.06-.86,1.56,1.56,0,0,1,1.54-1.19H338a1.52,1.52,0,0,0,1.5-1.65V217a.71.71,0,0,1,.14-.51l.27-.36a.31.31,0,0,0-.07-.43l-.65-.46.63-.3a.31.31,0,0,0,.14-.41l-.3-.59a.37.37,0,0,1,.2-.51l.72-.31a.52.52,0,0,0,.26-.71l-.82-1.61a1,1,0,0,1-.05-.76,7.62,7.62,0,0,0,.31-1.16,4.21,4.21,0,0,1-.62,0l-3.14,0-1.08.95v3.67h-1.6v-2.7a1,1,0,0,0-1-1h0l-1.57,1-.16.82a3.09,3.09,0,0,1-1.5,2.1l-2.3,1.33a3.24,3.24,0,0,1-1,1.7c-.1.1-.22.19-.33.28l-2.06,1.5a9.38,9.38,0,0,0,7.62,4.22,8.63,8.63,0,0,0,4.13-1.06Z"></path><path class="cls-20" d="M316.39,259.74a12.05,12.05,0,0,0,.21,6h26.08c-.71-2.29-2.41-4.6-2.63-6.83H316.58Z"></path><path class="cls-13" d="M335.68,221.83a8.63,8.63,0,0,1-4.13,1.06,9.38,9.38,0,0,1-7.62-4.22l-1.72,1.26L318,223a6.42,6.42,0,0,0-2.39,3.4l0,.14a1,1,0,0,0,0,.14,6.3,6.3,0,0,0-.18,1.51,6.15,6.15,0,0,0,.07,1l2.79,18.51a12.11,12.11,0,0,1-.14,4.45l-1.45,6.71h23.47a48.29,48.29,0,0,1,1.36-16.64l1-15.66Z"></path><path class="cls-14" d="M357.94,238.36l-5.47,4.15-8.56-14.34a5.14,5.14,0,0,0-1.48-1.6,5.21,5.21,0,0,0-8.19,4.26,5.16,5.16,0,0,0,1,3.09L348,251.07a4.14,4.14,0,0,0,6.47.24l7.87-7.73Z"></path><path class="cls-21" d="M289.54,226.61a3.9,3.9,0,0,1,2.72,1.07l0,0a3.91,3.91,0,0,1,1.17,2.79c0,.13,0,.26,0,.39l-.67,6.79h-7.13v-7.11A4,4,0,0,1,289.54,226.61Z"></path><path class="cls-22" d="M331.62,331.17h-52a8,8,0,0,1-7.75-6.06L251.43,265.4H359.85l-20.48,59.71A8,8,0,0,1,331.62,331.17Z"></path><path class="cls-14" d="M300.09,264.82a2,2,0,0,0-1-.63l-2.12-.51a1.46,1.46,0,0,1-1-.94l-3-8.63a21.25,21.25,0,0,1-1.09-6.61l1-9.81h-7.13v9.68a3,3,0,0,0,.23,1.16l6.7,14.9.53,1.2a2.35,2.35,0,0,0,2.6,1.37l3.07-.59h1.8Z"></path><path class="cls-14" d="M269.76,251.53h0l1.69-5-.21-1.34a2.65,2.65,0,0,1,.08-1.19l.64-2.08a8,8,0,0,0-.23-1l-3.53-15.4a4.92,4.92,0,0,0,1.22.65l-1.22-4.52-2.63,24.12a4.55,4.55,0,0,0,.41,2.41l2.85,6.07Z"></path><path class="cls-21" d="M268.24,225.58l-.43-.34-1.33,12.24h4.45l-2.73-11.93Z"></path><path class="cls-21" d="M268.45,225.72l.06,0Z"></path><path class="cls-13" d="M289.91,208.2c2.34-5.55-6.79-9.13-11.13-6.73-3.07,1.7-10.55,14.6-11.12,17.83-1.52,8.62,8.24,11.7,12.13,4.55,1.77-3.25-.4-6.56,2.12-10.19,2.25-3.25,7-3.19,7.54-7.82A5.87,5.87,0,0,1,289.91,208.2Z"></path><path class="cls-13" d="M369.8,228.79l4.28-.83.25-3,.55-5a1.33,1.33,0,0,0-1.12-1.46l-4.18-.6a1.32,1.32,0,0,0-1.5,1.13L367,226.89l.15.41A2.35,2.35,0,0,0,369.8,228.79Z"></path><path class="cls-14" d="M369.8,228.79l3.54-.69.91-8.19a.69.69,0,0,0-.58-.76l-4.18-.6h-.1a.69.69,0,0,0-.68.6L367.55,228A2.35,2.35,0,0,0,369.8,228.79Z"></path><path class="cls-21" d="M374.54,227.6l-.41-.32-.05.68-4.28.83a2.35,2.35,0,0,1-2.65-1.49l-.15-.41-1.13.8a1.62,1.62,0,0,0-.67,1.18l-.29,3.38a2,2,0,0,1-.7,1.37l-6,5.11,3.73,4.46,6.47-7.31a2,2,0,0,1,1.07-.63l2.05-.46a.66.66,0,0,0,.52-.57l0-.13A1.38,1.38,0,0,1,373,233a.66.66,0,0,0,.43-.6v-.23a1.39,1.39,0,0,1,.51-1l.2-.16a.7.7,0,0,0,.24-.68l-.1-.4a1.38,1.38,0,0,1,.2-1.06l.22-.35A.67.67,0,0,0,374.54,227.6Z"></path><path class="cls-23" d="M369.15,224.13l1.16,3.19,2.18-2.61a2,2,0,0,0-1.17-3.18h0A2,2,0,0,0,369.15,224.13Zm1.65.38a1.07,1.07,0,1,1,1.24-.87A1.07,1.07,0,0,1,370.8,224.51Z"></path></g></svg> 